<svg width="870" height="870" viewBox="0 0 870 870" fill="none" xmlns="http://www.w3.org/2000/svg">
<path d="M435 746.97C263.637 746.97 118.637 606.364 118.637 430.606C118.637 259.242 259.243 114.242 435 114.242C606.364 114.242 751.364 254.849 751.364 430.606C746.97 606.364 606.364 746.97 435 746.97ZM435 175.758C294.394 175.758 175.758 294.394 175.758 435C175.758 575.606 290 694.242 435 694.242C575.606 694.242 694.243 580 694.243 435C689.849 294.394 575.606 175.758 435 175.758Z" fill="url(#paint0_linear_232_12)"/>
<path d="M869.093 406.432C870.096 422.173 857.213 435 841.439 435C825.666 435 812.993 422.17 811.782 406.443C796.872 212.924 631.916 57.1212 435 57.1212C228.485 57.1212 57.1212 228.485 57.1212 435H0C0 193.333 193.333 0 435 0C667.065 0 854.56 178.275 869.093 406.432Z" fill="url(#paint1_linear_232_12)"/>
<path d="M435 841.439C435 857.213 422.173 870.098 406.433 869.073C178.276 854.225 0 662.845 0 435H57.1212C57.1212 631.916 212.924 796.872 406.443 811.781C422.17 812.993 435 825.666 435 841.439Z" fill="url(#paint2_linear_232_12)"/>
<path d="M621.769 410.938C624.172 426.528 611.152 439.394 595.379 439.394C579.605 439.394 567.147 426.452 563.772 411.044C550.558 350.717 496.097 307.576 435 307.576C375.092 307.576 321.565 352.245 307.046 408.956C302.833 425.412 289.411 439.394 272.424 439.394C255.437 439.394 241.405 425.53 244.066 408.753C258.427 318.214 335.601 250.455 430.606 250.455C526.374 250.455 607.647 319.307 621.769 410.938Z" fill="url(#paint3_linear_232_12)"/>
<defs>
<linearGradient id="paint0_linear_232_12" x1="435" y1="114.242" x2="435" y2="746.97" gradientUnits="userSpaceOnUse">
<stop stop-color="#7A28FF"/>
<stop offset="1" stop-color="#5B00EF"/>
</linearGradient>
<linearGradient id="paint1_linear_232_12" x1="435" y1="0" x2="435" y2="870" gradientUnits="userSpaceOnUse">
<stop stop-color="#7A28FF"/>
<stop offset="1" stop-color="#5B00EF"/>
</linearGradient>
<linearGradient id="paint2_linear_232_12" x1="435" y1="0" x2="435" y2="870" gradientUnits="userSpaceOnUse">
<stop stop-color="#7A28FF"/>
<stop offset="1" stop-color="#5B00EF"/>
</linearGradient>
<linearGradient id="paint3_linear_232_12" x1="432.803" y1="250.455" x2="432.803" y2="439.394" gradientUnits="userSpaceOnUse">
<stop stop-color="#7A28FF"/>
<stop offset="1" stop-color="#5B00EF"/>
</linearGradient>
</defs>
</svg>
